<svg xmlns="http://www.w3.org/2000/svg" width="px" height="px" viewBox="0 0 479 210"><path fill="#212529" d="M0 0h479v210H0z"/><path d="M469.094 24.21a2.438 2.438 0 01-.828-.687c.355-.011.71-.066 1.058-.168.774-.257 1.485-.789 2.07-1.539 1.145-1.511 1.672-3.171 2.149-5.12.387-1.743.691-3.52.902-5.321.106-.605.176-1.207.285-1.809.036-.148.082-.316.114-.46.031-.145.039-.079-.047 0-.086.078.07-.067.273-.145 2.11 1.293 2.575 5.59.993 9.762-1.583 4.172-4.72 6.734-6.958 5.543zm-.973-.827c-1.371-1.809-1.496-5.473-.152-9.031 1.25-3.317 3.433-5.559 5.39-5.832-.054.199-.086.39-.105.464-.086.684-.14 1.371-.188 2.051a63.292 63.292 0 01-.453 5.32c-.3 1.856-.644 3.493-1.57 5.06-.484.753-1.098 1.315-1.79 1.628-.366.164-.745.27-1.132.32zm0 0" fill-rule="evenodd" fill="#f8f9fa" fill-opacity=".149"/><path d="M469.094 24.21a2.438 2.438 0 01-.828-.687c.355-.011.71-.066 1.058-.168.774-.257 1.485-.789 2.07-1.539 1.145-1.511 1.672-3.171 2.149-5.12.387-1.743.691-3.52.902-5.321.106-.605.176-1.207.285-1.809.036-.148.082-.316.114-.46.031-.145.039-.079-.047 0-.086.078.07-.067.273-.145 2.11 1.293 2.575 5.59.993 9.762-1.583 4.172-4.72 6.734-6.958 5.543zm-.973-.827c-1.371-1.809-1.496-5.473-.152-9.031 1.25-3.317 3.433-5.559 5.39-5.832-.054.199-.086.39-.105.464-.086.684-.14 1.371-.188 2.051a63.292 63.292 0 01-.453 5.32c-.3 1.856-.644 3.493-1.57 5.06-.484.753-1.098 1.315-1.79 1.628-.366.164-.745.27-1.132.32zm0 0" fill-rule="evenodd" fill-opacity=".2"/><path d="M457.121 47.266a2.445 2.445 0 01-.832-.684c.36-.016.711-.07 1.063-.172.77-.258 1.484-.785 2.07-1.539 1.144-1.512 1.668-3.172 2.144-5.121.387-1.742.692-3.52.903-5.32.11-.602.18-1.207.285-1.809.035-.148.086-.316.113-.46.031-.145.043-.079-.047 0-.082.077.07-.067.274-.145 2.11 1.293 2.578 5.59.996 9.761-1.586 4.172-4.723 6.735-6.961 5.543zm-.973-.828c-1.37-1.81-1.496-5.473-.156-9.032 1.25-3.316 3.434-5.558 5.39-5.832-.054.2-.081.39-.105.465-.086.688-.136 1.371-.187 2.05a60.177 60.177 0 01-.453 5.321c-.297 1.856-.64 3.492-1.567 5.059-.484.754-1.101 1.316-1.789 1.629-.37.164-.75.27-1.133.32zm0 0" fill-rule="evenodd" fill="#f8f9fa" fill-opacity=".149"/><path d="M457.121 47.266a2.445 2.445 0 01-.832-.684c.36-.016.711-.07 1.063-.172.77-.258 1.484-.785 2.07-1.539 1.144-1.512 1.668-3.172 2.144-5.121.387-1.742.692-3.52.903-5.32.11-.602.18-1.207.285-1.809.035-.148.086-.316.113-.46.031-.145.043-.079-.047 0-.082.077.07-.067.274-.145 2.11 1.293 2.578 5.59.996 9.761-1.586 4.172-4.723 6.735-6.961 5.543zm-.973-.828c-1.37-1.81-1.496-5.473-.156-9.032 1.25-3.316 3.434-5.558 5.39-5.832-.054.2-.081.39-.105.465-.086.688-.136 1.371-.187 2.05a60.177 60.177 0 01-.453 5.321c-.297 1.856-.64 3.492-1.567 5.059-.484.754-1.101 1.316-1.789 1.629-.37.164-.75.27-1.133.32zm0 0" fill-rule="evenodd" fill-opacity=".2"/><path d="M438 55.602a3.713 3.713 0 01-1.266-1.051 6.745 6.745 0 001.614-.258c1.18-.395 2.265-1.207 3.16-2.36 1.746-2.312 2.547-4.855 3.27-7.843a82.395 82.395 0 001.382-8.145c.164-.922.266-1.843.43-2.765.05-.23.129-.489.176-.711.046-.223.058-.121-.07 0-.13.12.105-.102.417-.223 3.211 1.984 3.926 8.563 1.512 14.95-2.414 6.386-7.195 10.316-10.61 8.488zm-1.484-1.27c-2.094-2.766-2.282-8.379-.235-13.828 1.903-5.078 5.23-8.516 8.223-8.93-.086.305-.133.602-.164.711a62.082 62.082 0 00-.285 3.14 94.035 94.035 0 01-.692 8.15c-.457 2.84-.98 5.347-2.39 7.741-.739 1.157-1.68 2.016-2.73 2.496-.563.25-1.141.415-1.727.493zm0 0" fill-rule="evenodd" fill="#f8f9fa" fill-opacity=".149"/><path d="M438 55.602a3.713 3.713 0 01-1.266-1.051 6.745 6.745 0 001.614-.258c1.18-.395 2.265-1.207 3.16-2.36 1.746-2.312 2.547-4.855 3.27-7.843a82.395 82.395 0 001.382-8.145c.164-.922.266-1.843.43-2.765.05-.23.129-.489.176-.711.046-.223.058-.121-.07 0-.13.12.105-.102.417-.223 3.211 1.984 3.926 8.563 1.512 14.95-2.414 6.386-7.195 10.316-10.61 8.488zm-1.484-1.27c-2.094-2.766-2.282-8.379-.235-13.828 1.903-5.078 5.23-8.516 8.223-8.93-.086.305-.133.602-.164.711a62.082 62.082 0 00-.285 3.14 94.035 94.035 0 01-.692 8.15c-.457 2.84-.98 5.347-2.39 7.741-.739 1.157-1.68 2.016-2.73 2.496-.563.25-1.141.415-1.727.493zm0 0" fill-rule="evenodd" fill-opacity=".2"/><path d="M447.98 24.027a3.77 3.77 0 01-1.27-1.05 6.746 6.746 0 001.618-.258c1.18-.395 2.266-1.207 3.16-2.36 1.746-2.312 2.543-4.855 3.27-7.843a82.27 82.27 0 001.379-8.149c.164-.922.27-1.844.433-2.762.051-.23.13-.492.176-.71.047-.223.059-.122-.07 0-.133.12.101-.102.418-.223 3.21 1.984 3.922 8.562 1.508 14.95-2.41 6.386-7.196 10.312-10.606 8.487zm-1.484-1.273c-2.094-2.762-2.285-8.375-.234-13.824 1.902-5.078 5.23-8.516 8.222-8.93-.086.305-.132.598-.164.71-.132 1.052-.21 2.103-.289 3.142a94.162 94.162 0 01-.687 8.148c-.457 2.84-.98 5.344-2.395 7.742-.738 1.153-1.676 2.016-2.726 2.496-.563.25-1.141.414-1.727.489zm0 0" fill-rule="evenodd" fill="#f8f9fa" fill-opacity=".149"/><path d="M447.98 24.027a3.77 3.77 0 01-1.27-1.05 6.746 6.746 0 001.618-.258c1.18-.395 2.266-1.207 3.16-2.36 1.746-2.312 2.543-4.855 3.27-7.843a82.27 82.27 0 001.379-8.149c.164-.922.27-1.844.433-2.762.051-.23.13-.492.176-.71.047-.223.059-.122-.07 0-.133.12.101-.102.418-.223 3.21 1.984 3.922 8.562 1.508 14.95-2.41 6.386-7.196 10.312-10.606 8.487zm-1.484-1.273c-2.094-2.762-2.285-8.375-.234-13.824 1.902-5.078 5.23-8.516 8.222-8.93-.086.305-.132.598-.164.71-.132 1.052-.21 2.103-.289 3.142a94.162 94.162 0 01-.687 8.148c-.457 2.84-.98 5.344-2.395 7.742-.738 1.153-1.676 2.016-2.726 2.496-.563.25-1.141.414-1.727.489zm0 0" fill-rule="evenodd" fill-opacity=".2"/><path d="M444.648 71.824a2.445 2.445 0 01-.832-.683 4.47 4.47 0 001.059-.172c.773-.258 1.484-.79 2.07-1.54 1.149-1.511 1.672-3.171 2.149-5.12.386-1.743.691-3.52.902-5.32.106-.606.176-1.208.285-1.81.035-.148.082-.316.114-.46.03-.145.039-.078-.047 0s.07-.067.273-.145c2.11 1.293 2.574 5.59.992 9.762-1.582 4.172-4.718 6.734-6.957 5.543zm-.976-.828c-1.371-1.808-1.496-5.473-.152-9.031 1.25-3.317 3.433-5.559 5.39-5.832-.055.199-.086.39-.105.465-.086.687-.14 1.37-.188 2.05a61.695 61.695 0 01-.453 5.32c-.3 1.856-.644 3.493-1.57 5.06-.485.753-1.098 1.316-1.79 1.628-.366.164-.745.27-1.132.32zm0 0" fill-rule="evenodd" fill="#f8f9fa" fill-opacity=".149"/><path d="M444.648 71.824a2.445 2.445 0 01-.832-.683 4.47 4.47 0 001.059-.172c.773-.258 1.484-.79 2.07-1.54 1.149-1.511 1.672-3.171 2.149-5.12.386-1.743.691-3.52.902-5.32.106-.606.176-1.208.285-1.81.035-.148.082-.316.114-.46.03-.145.039-.078-.047 0s.07-.067.273-.145c2.11 1.293 2.574 5.59.992 9.762-1.582 4.172-4.718 6.734-6.957 5.543zm-.976-.828c-1.371-1.808-1.496-5.473-.152-9.031 1.25-3.317 3.433-5.559 5.39-5.832-.055.199-.086.39-.105.465-.086.687-.14 1.37-.188 2.05a61.695 61.695 0 01-.453 5.32c-.3 1.856-.644 3.493-1.57 5.06-.485.753-1.098 1.316-1.79 1.628-.366.164-.745.27-1.132.32zm0 0" fill-rule="evenodd" fill-opacity=".2"/><path d="M423.531 89.434a3.77 3.77 0 01-1.27-1.051 6.746 6.746 0 001.618-.258c1.18-.395 2.266-1.207 3.16-2.36 1.746-2.312 2.543-4.859 3.27-7.843a81.144 81.144 0 001.378-8.149c.165-.921.27-1.843.434-2.765.05-.23.129-.488.176-.707.047-.223.058-.121-.07 0-.133.117.101-.102.418-.223 3.21 1.98 3.925 8.563 1.507 14.95-2.41 6.386-7.195 10.312-10.605 8.488zm-1.484-1.274c-2.094-2.765-2.285-8.375-.235-13.824 1.903-5.078 5.231-8.516 8.223-8.93-.086.305-.133.598-.164.711a66.52 66.52 0 00-.289 3.14 92.64 92.64 0 01-.687 8.15c-.457 2.84-.98 5.343-2.391 7.741-.742 1.153-1.68 2.016-2.73 2.497-.563.25-1.141.414-1.727.488zm0 0" fill-rule="evenodd" fill="#f8f9fa" fill-opacity=".149"/><path d="M423.531 89.434a3.77 3.77 0 01-1.27-1.051 6.746 6.746 0 001.618-.258c1.18-.395 2.266-1.207 3.16-2.36 1.746-2.312 2.543-4.859 3.27-7.843a81.144 81.144 0 001.378-8.149c.165-.921.27-1.843.434-2.765.05-.23.129-.488.176-.707.047-.223.058-.121-.07 0-.133.117.101-.102.418-.223 3.21 1.98 3.925 8.563 1.507 14.95-2.41 6.386-7.195 10.312-10.605 8.488zm-1.484-1.274c-2.094-2.765-2.285-8.375-.235-13.824 1.903-5.078 5.231-8.516 8.223-8.93-.086.305-.133.598-.164.711a66.52 66.52 0 00-.289 3.14 92.64 92.64 0 01-.687 8.15c-.457 2.84-.98 5.343-2.391 7.741-.742 1.153-1.68 2.016-2.73 2.497-.563.25-1.141.414-1.727.488zm0 0" fill-rule="evenodd" fill-opacity=".2"/><path d="M469.094 91.371a2.438 2.438 0 01-.828-.687c.355-.012.71-.067 1.058-.168.774-.258 1.485-.79 2.07-1.54 1.145-1.511 1.672-3.171 2.149-5.12.387-1.743.691-3.524.902-5.32.106-.606.176-1.208.285-1.81.036-.148.082-.316.114-.46.031-.145.039-.079-.047 0-.086.078.07-.067.273-.145 2.11 1.293 2.575 5.59.993 9.762-1.583 4.172-4.72 6.734-6.958 5.543zm-.973-.832c-1.371-1.805-1.496-5.469-.152-9.027 1.25-3.317 3.433-5.563 5.39-5.832-.054.199-.086.39-.105.465-.086.683-.14 1.37-.188 2.05a63.292 63.292 0 01-.453 5.32c-.3 1.856-.644 3.493-1.57 5.06-.484.753-1.098 1.316-1.79 1.628-.366.164-.745.27-1.132.32zm0 0" fill-rule="evenodd" fill="#f8f9fa" fill-opacity=".149"/><path d="M469.094 91.371a2.438 2.438 0 01-.828-.687c.355-.012.71-.067 1.058-.168.774-.258 1.485-.79 2.07-1.54 1.145-1.511 1.672-3.171 2.149-5.12.387-1.743.691-3.524.902-5.32.106-.606.176-1.208.285-1.81.036-.148.082-.316.114-.46.031-.145.039-.079-.047 0-.086.078.07-.067.273-.145 2.11 1.293 2.575 5.59.993 9.762-1.583 4.172-4.72 6.734-6.958 5.543zm-.973-.832c-1.371-1.805-1.496-5.469-.152-9.027 1.25-3.317 3.433-5.563 5.39-5.832-.054.199-.086.39-.105.465-.086.683-.14 1.37-.188 2.05a63.292 63.292 0 01-.453 5.32c-.3 1.856-.644 3.493-1.57 5.06-.484.753-1.098 1.316-1.79 1.628-.366.164-.745.27-1.132.32zm0 0" fill-rule="evenodd" fill-opacity=".2"/><path d="M440.246 113.992a3.758 3.758 0 01-1.266-1.05 6.745 6.745 0 001.614-.258c1.18-.399 2.265-1.207 3.16-2.36 1.746-2.312 2.543-4.86 3.27-7.844a81.144 81.144 0 001.378-8.148c.168-.922.27-1.844.434-2.766.05-.23.129-.488.176-.707.047-.222.058-.12-.07 0-.133.118.105-.101.417-.222 3.211 1.98 3.926 8.562 1.508 14.949-2.41 6.387-7.195 10.312-10.605 8.488zm-1.484-1.273c-2.094-2.766-2.282-8.38-.235-13.824 1.903-5.079 5.23-8.516 8.223-8.93-.086.305-.133.597-.164.707a66.682 66.682 0 00-.29 3.144 92.641 92.641 0 01-.687 8.149c-.457 2.836-.98 5.344-2.39 7.742-.739 1.152-1.68 2.016-2.73 2.496-.563.25-1.141.414-1.727.488zm0 0" fill-rule="evenodd" fill="#f8f9fa" fill-opacity=".149"/><path d="M440.246 113.992a3.758 3.758 0 01-1.266-1.05 6.745 6.745 0 001.614-.258c1.18-.399 2.265-1.207 3.16-2.36 1.746-2.312 2.543-4.86 3.27-7.844a81.144 81.144 0 001.378-8.148c.168-.922.27-1.844.434-2.766.05-.23.129-.488.176-.707.047-.222.058-.12-.07 0-.133.118.105-.101.417-.222 3.211 1.98 3.926 8.562 1.508 14.949-2.41 6.387-7.195 10.312-10.605 8.488zm-1.484-1.273c-2.094-2.766-2.282-8.38-.235-13.824 1.903-5.079 5.23-8.516 8.223-8.93-.086.305-.133.597-.164.707a66.682 66.682 0 00-.29 3.144 92.641 92.641 0 01-.687 8.149c-.457 2.836-.98 5.344-2.39 7.742-.739 1.152-1.68 2.016-2.73 2.496-.563.25-1.141.414-1.727.488zm0 0" fill-rule="evenodd" fill-opacity=".2"/><path d="M467.438 67.883a3.758 3.758 0 01-1.266-1.051 6.715 6.715 0 001.613-.258c1.18-.398 2.27-1.21 3.16-2.36 1.746-2.316 2.547-4.859 3.274-7.843a83.43 83.43 0 001.379-8.148c.164-.922.265-1.844.43-2.766.054-.23.132-.488.179-.707.043-.223.055-.121-.074 0-.13.117.105-.102.418-.223 3.21 1.98 3.926 8.563 1.512 14.95-2.415 6.386-7.196 10.312-10.61 8.488zm-1.485-1.274c-2.09-2.765-2.281-8.379-.234-13.824 1.906-5.078 5.234-8.515 8.222-8.93-.082.305-.128.598-.164.708-.129 1.05-.207 2.101-.285 3.144a95.87 95.87 0 01-.687 8.148c-.457 2.836-.98 5.344-2.395 7.743-.738 1.152-1.68 2.015-2.73 2.496-.559.25-1.14.41-1.727.488zm0 0" fill-rule="evenodd" fill="#f8f9fa" fill-opacity=".149"/><path d="M467.438 67.883a3.758 3.758 0 01-1.266-1.051 6.715 6.715 0 001.613-.258c1.18-.398 2.27-1.21 3.16-2.36 1.746-2.316 2.547-4.859 3.274-7.843a83.43 83.43 0 001.379-8.148c.164-.922.265-1.844.43-2.766.054-.23.132-.488.179-.707.043-.223.055-.121-.074 0-.13.117.105-.102.418-.223 3.21 1.98 3.926 8.563 1.512 14.95-2.415 6.386-7.196 10.312-10.61 8.488zm-1.485-1.274c-2.09-2.765-2.281-8.379-.234-13.824 1.906-5.078 5.234-8.515 8.222-8.93-.082.305-.128.598-.164.708-.129 1.05-.207 2.101-.285 3.144a95.87 95.87 0 01-.687 8.148c-.457 2.836-.98 5.344-2.395 7.743-.738 1.152-1.68 2.015-2.73 2.496-.559.25-1.14.41-1.727.488zm0 0" fill-rule="evenodd" fill-opacity=".2"/><path d="M10.402 24.21c.309-.148.59-.382.832-.687a4.274 4.274 0 01-1.058-.168c-.774-.257-1.489-.789-2.074-1.539-1.145-1.511-1.668-3.171-2.145-5.12a54.183 54.183 0 01-.902-5.321c-.11-.605-.176-1.207-.285-1.809-.036-.148-.086-.316-.114-.46-.031-.145-.039-.079.047 0 .086.078-.07-.067-.277-.145-2.106 1.293-2.57 5.59-.989 9.762 1.583 4.172 4.72 6.734 6.958 5.543zm.973-.827c1.375-1.809 1.496-5.473.156-9.031-1.25-3.317-3.433-5.559-5.394-5.832.058.199.086.39.11.464.085.684.136 1.371.187 2.051.074 1.785.226 3.563.453 5.32.297 1.856.64 3.493 1.566 5.06.485.753 1.102 1.315 1.79 1.628.37.164.75.27 1.132.32zm0 0" fill-rule="evenodd" fill="#f8f9fa" fill-opacity=".149"/><path d="M10.402 24.21c.309-.148.59-.382.832-.687a4.274 4.274 0 01-1.058-.168c-.774-.257-1.489-.789-2.074-1.539-1.145-1.511-1.668-3.171-2.145-5.12a54.183 54.183 0 01-.902-5.321c-.11-.605-.176-1.207-.285-1.809-.036-.148-.086-.316-.114-.46-.031-.145-.039-.079.047 0 .086.078-.07-.067-.277-.145-2.106 1.293-2.57 5.59-.989 9.762 1.583 4.172 4.72 6.734 6.958 5.543zm.973-.827c1.375-1.809 1.496-5.473.156-9.031-1.25-3.317-3.433-5.559-5.394-5.832.058.199.086.39.11.464.085.684.136 1.371.187 2.051.074 1.785.226 3.563.453 5.32.297 1.856.64 3.493 1.566 5.06.485.753 1.102 1.315 1.79 1.628.37.164.75.27 1.132.32zm0 0" fill-rule="evenodd" fill-opacity=".2"/><path d="M22.379 47.266c.305-.149.59-.383.832-.684-.36-.016-.711-.07-1.063-.172-.77-.258-1.484-.785-2.07-1.539-1.144-1.512-1.668-3.172-2.144-5.121a54.19 54.19 0 01-.907-5.32c-.105-.602-.175-1.207-.28-1.809-.036-.148-.087-.316-.118-.46-.031-.145-.04-.079.047 0 .086.077-.067-.067-.274-.145-2.105 1.293-2.574 5.59-.992 9.761 1.582 4.172 4.719 6.735 6.957 5.543zm.973-.828c1.37-1.81 1.496-5.473.152-9.032-1.246-3.316-3.43-5.558-5.39-5.832.054.2.085.39.109.465.082.688.136 1.371.187 2.05.074 1.786.223 3.563.45 5.321.3 1.856.644 3.492 1.57 5.059.484.754 1.101 1.316 1.789 1.629.367.164.746.27 1.133.32zm0 0" fill-rule="evenodd" fill="#f8f9fa" fill-opacity=".149"/><path d="M22.379 47.266c.305-.149.59-.383.832-.684-.36-.016-.711-.07-1.063-.172-.77-.258-1.484-.785-2.07-1.539-1.144-1.512-1.668-3.172-2.144-5.121a54.19 54.19 0 01-.907-5.32c-.105-.602-.175-1.207-.28-1.809-.036-.148-.087-.316-.118-.46-.031-.145-.04-.079.047 0 .086.077-.067-.067-.274-.145-2.105 1.293-2.574 5.59-.992 9.761 1.582 4.172 4.719 6.735 6.957 5.543zm.973-.828c1.37-1.81 1.496-5.473.152-9.032-1.246-3.316-3.43-5.558-5.39-5.832.054.2.085.39.109.465.082.688.136 1.371.187 2.05.074 1.786.223 3.563.45 5.321.3 1.856.644 3.492 1.57 5.059.484.754 1.101 1.316 1.789 1.629.367.164.746.27 1.133.32zm0 0" fill-rule="evenodd" fill-opacity=".2"/><path d="M41.496 55.602a3.688 3.688 0 001.27-1.051 6.715 6.715 0 01-1.614-.258c-1.18-.395-2.265-1.207-3.16-2.36-1.746-2.312-2.547-4.855-3.27-7.843a82.395 82.395 0 01-1.382-8.145c-.164-.922-.27-1.843-.43-2.765-.055-.23-.133-.489-.18-.711-.042-.223-.058-.121.075 0 .129.12-.106-.102-.418-.223-3.215 1.984-3.926 8.563-1.512 14.95 2.414 6.386 7.195 10.316 10.61 8.488zm1.484-1.27c2.094-2.766 2.286-8.379.239-13.828-1.907-5.078-5.235-8.516-8.223-8.93.086.305.129.602.164.711.13 1.05.207 2.102.285 3.14a95.6 95.6 0 00.688 8.15c.457 2.84.98 5.347 2.394 7.741.739 1.157 1.68 2.016 2.727 2.496.562.25 1.14.415 1.726.493zm0 0" fill-rule="evenodd" fill="#f8f9fa" fill-opacity=".149"/><path d="M41.496 55.602a3.688 3.688 0 001.27-1.051 6.715 6.715 0 01-1.614-.258c-1.18-.395-2.265-1.207-3.16-2.36-1.746-2.312-2.547-4.855-3.27-7.843a82.395 82.395 0 01-1.382-8.145c-.164-.922-.27-1.843-.43-2.765-.055-.23-.133-.489-.18-.711-.042-.223-.058-.121.075 0 .129.12-.106-.102-.418-.223-3.215 1.984-3.926 8.563-1.512 14.95 2.414 6.386 7.195 10.316 10.61 8.488zm1.484-1.27c2.094-2.766 2.286-8.379.239-13.828-1.907-5.078-5.235-8.516-8.223-8.93.086.305.129.602.164.711.13 1.05.207 2.102.285 3.14a95.6 95.6 0 00.688 8.15c.457 2.84.98 5.347 2.394 7.741.739 1.157 1.68 2.016 2.727 2.496.562.25 1.14.415 1.726.493zm0 0" fill-rule="evenodd" fill-opacity=".2"/><path d="M31.52 24.027c.464-.23.898-.586 1.27-1.05a6.746 6.746 0 01-1.618-.258c-1.18-.395-2.266-1.207-3.16-2.36-1.746-2.312-2.543-4.855-3.27-7.843a82.278 82.278 0 01-1.383-8.149c-.16-.922-.265-1.844-.43-2.762-.05-.23-.132-.492-.175-.71-.047-.223-.059-.122.07 0 .133.12-.105-.102-.418-.223-3.21 1.984-3.926 8.562-1.511 14.95 2.414 6.386 7.195 10.312 10.609 8.487zm1.484-1.273c2.094-2.762 2.281-8.375.234-13.824C31.336 3.852 28.004.414 25.016 0c.086.305.132.598.164.71.133 1.052.21 2.103.289 3.142.113 2.734.34 5.453.687 8.148.457 2.84.98 5.344 2.39 7.742.74 1.153 1.68 2.016 2.731 2.496.563.25 1.141.414 1.727.489zm0 0" fill-rule="evenodd" fill="#f8f9fa" fill-opacity=".149"/><path d="M31.52 24.027c.464-.23.898-.586 1.27-1.05a6.746 6.746 0 01-1.618-.258c-1.18-.395-2.266-1.207-3.16-2.36-1.746-2.312-2.543-4.855-3.27-7.843a82.278 82.278 0 01-1.383-8.149c-.16-.922-.265-1.844-.43-2.762-.05-.23-.132-.492-.175-.71-.047-.223-.059-.122.07 0 .133.12-.105-.102-.418-.223-3.21 1.984-3.926 8.562-1.511 14.95 2.414 6.386 7.195 10.312 10.609 8.487zm1.484-1.273c2.094-2.762 2.281-8.375.234-13.824C31.336 3.852 28.004.414 25.016 0c.086.305.132.598.164.71.133 1.052.21 2.103.289 3.142.113 2.734.34 5.453.687 8.148.457 2.84.98 5.344 2.39 7.742.74 1.153 1.68 2.016 2.731 2.496.563.25 1.141.414 1.727.489zm0 0" fill-rule="evenodd" fill-opacity=".2"/><path d="M34.852 71.824c.304-.148.59-.383.832-.683a4.47 4.47 0 01-1.059-.172c-.773-.258-1.488-.79-2.074-1.54-1.145-1.511-1.668-3.171-2.145-5.12a53.045 53.045 0 01-.902-5.32c-.11-.606-.176-1.208-.285-1.81-.035-.148-.086-.316-.117-.46-.028-.145-.036-.078.05 0s-.07-.067-.277-.145c-2.105 1.293-2.574 5.59-.988 9.762 1.582 4.172 4.718 6.734 6.957 5.543zm.972-.828c1.375-1.808 1.496-5.473.156-9.031-1.25-3.317-3.433-5.559-5.394-5.832.059.199.086.39.11.465.085.687.136 1.37.187 2.05.074 1.786.226 3.563.449 5.32.3 1.856.645 3.493 1.57 5.06.485.753 1.102 1.316 1.79 1.628.37.164.75.27 1.132.32zm0 0" fill-rule="evenodd" fill="#f8f9fa" fill-opacity=".149"/><path d="M34.852 71.824c.304-.148.59-.383.832-.683a4.47 4.47 0 01-1.059-.172c-.773-.258-1.488-.79-2.074-1.54-1.145-1.511-1.668-3.171-2.145-5.12a53.045 53.045 0 01-.902-5.32c-.11-.606-.176-1.208-.285-1.81-.035-.148-.086-.316-.117-.46-.028-.145-.036-.078.05 0s-.07-.067-.277-.145c-2.105 1.293-2.574 5.59-.988 9.762 1.582 4.172 4.718 6.734 6.957 5.543zm.972-.828c1.375-1.808 1.496-5.473.156-9.031-1.25-3.317-3.433-5.559-5.394-5.832.059.199.086.39.11.465.085.687.136 1.37.187 2.05.074 1.786.226 3.563.449 5.32.3 1.856.645 3.493 1.57 5.06.485.753 1.102 1.316 1.79 1.628.37.164.75.27 1.132.32zm0 0" fill-rule="evenodd" fill-opacity=".2"/><path d="M55.969 89.434c.465-.23.898-.586 1.265-1.051a6.714 6.714 0 01-1.613-.258c-1.18-.395-2.266-1.207-3.16-2.36-1.746-2.312-2.543-4.859-3.27-7.843a82.278 82.278 0 01-1.382-8.149c-.16-.921-.266-1.843-.43-2.765-.05-.23-.133-.488-.176-.707-.047-.223-.058-.121.07 0 .133.117-.105-.102-.418-.223-3.21 1.98-3.925 8.563-1.511 14.95 2.414 6.386 7.195 10.312 10.61 8.488zm1.484-1.274c2.094-2.765 2.281-8.375.234-13.824-1.902-5.078-5.234-8.516-8.222-8.93.086.305.133.598.164.711.129 1.051.21 2.098.289 3.14a95.73 95.73 0 00.684 8.15c.46 2.84.984 5.343 2.394 7.741.738 1.153 1.68 2.016 2.73 2.497a6.11 6.11 0 001.727.488zm0 0" fill-rule="evenodd" fill="#f8f9fa" fill-opacity=".149"/><path d="M55.969 89.434c.465-.23.898-.586 1.265-1.051a6.714 6.714 0 01-1.613-.258c-1.18-.395-2.266-1.207-3.16-2.36-1.746-2.312-2.543-4.859-3.27-7.843a82.278 82.278 0 01-1.382-8.149c-.16-.921-.266-1.843-.43-2.765-.05-.23-.133-.488-.176-.707-.047-.223-.058-.121.07 0 .133.117-.105-.102-.418-.223-3.21 1.98-3.925 8.563-1.511 14.95 2.414 6.386 7.195 10.312 10.61 8.488zm1.484-1.274c2.094-2.765 2.281-8.375.234-13.824-1.902-5.078-5.234-8.516-8.222-8.93.086.305.133.598.164.711.129 1.051.21 2.098.289 3.14a95.73 95.73 0 00.684 8.15c.46 2.84.984 5.343 2.394 7.741.738 1.153 1.68 2.016 2.73 2.497a6.11 6.11 0 001.727.488zm0 0" fill-rule="evenodd" fill-opacity=".2"/><path d="M10.402 91.371c.309-.148.59-.383.832-.687a4.274 4.274 0 01-1.058-.168c-.774-.258-1.489-.79-2.074-1.54-1.145-1.511-1.668-3.171-2.145-5.12a54.381 54.381 0 01-.902-5.32c-.11-.606-.176-1.208-.285-1.81-.036-.148-.086-.316-.114-.46-.031-.145-.039-.079.047 0 .086.078-.07-.067-.277-.145-2.106 1.293-2.57 5.59-.989 9.762 1.583 4.172 4.72 6.734 6.958 5.543zm.973-.832c1.375-1.805 1.496-5.469.156-9.027-1.25-3.317-3.433-5.563-5.394-5.832.058.199.086.39.11.465.085.683.136 1.37.187 2.05.074 1.785.226 3.563.453 5.32.297 1.856.64 3.493 1.566 5.06.485.753 1.102 1.316 1.79 1.628.37.164.75.27 1.132.32zm0 0" fill-rule="evenodd" fill="#f8f9fa" fill-opacity=".149"/><path d="M10.402 91.371c.309-.148.59-.383.832-.687a4.274 4.274 0 01-1.058-.168c-.774-.258-1.489-.79-2.074-1.54-1.145-1.511-1.668-3.171-2.145-5.12a54.381 54.381 0 01-.902-5.32c-.11-.606-.176-1.208-.285-1.81-.036-.148-.086-.316-.114-.46-.031-.145-.039-.079.047 0 .086.078-.07-.067-.277-.145-2.106 1.293-2.57 5.59-.989 9.762 1.583 4.172 4.72 6.734 6.958 5.543zm.973-.832c1.375-1.805 1.496-5.469.156-9.027-1.25-3.317-3.433-5.563-5.394-5.832.058.199.086.39.11.465.085.683.136 1.37.187 2.05.074 1.785.226 3.563.453 5.32.297 1.856.64 3.493 1.566 5.06.485.753 1.102 1.316 1.79 1.628.37.164.75.27 1.132.32zm0 0" fill-rule="evenodd" fill-opacity=".2"/><path d="M39.254 113.992c.465-.23.898-.586 1.266-1.05a6.714 6.714 0 01-1.614-.258c-1.18-.399-2.265-1.207-3.16-2.36-1.746-2.312-2.543-4.86-3.27-7.844a82.278 82.278 0 01-1.382-8.148c-.16-.922-.266-1.844-.43-2.766-.055-.23-.133-.488-.176-.707-.047-.222-.058-.12.07 0 .133.118-.105-.101-.417-.222-3.211 1.98-3.926 8.562-1.512 14.949 2.414 6.387 7.195 10.312 10.61 8.488zm1.484-1.273c2.094-2.766 2.282-8.38.235-13.824-1.903-5.079-5.235-8.516-8.223-8.93.086.305.129.597.164.707.129 1.05.207 2.101.29 3.144.108 2.735.339 5.454.683 8.149.46 2.836.984 5.344 2.394 7.742.739 1.152 1.68 2.016 2.73 2.496a6.11 6.11 0 001.727.488zm0 0" fill-rule="evenodd" fill="#f8f9fa" fill-opacity=".149"/><path d="M39.254 113.992c.465-.23.898-.586 1.266-1.05a6.714 6.714 0 01-1.614-.258c-1.18-.399-2.265-1.207-3.16-2.36-1.746-2.312-2.543-4.86-3.27-7.844a82.278 82.278 0 01-1.382-8.148c-.16-.922-.266-1.844-.43-2.766-.055-.23-.133-.488-.176-.707-.047-.222-.058-.12.07 0 .133.118-.105-.101-.417-.222-3.211 1.98-3.926 8.562-1.512 14.949 2.414 6.387 7.195 10.312 10.61 8.488zm1.484-1.273c2.094-2.766 2.282-8.38.235-13.824-1.903-5.079-5.235-8.516-8.223-8.93.086.305.129.597.164.707.129 1.05.207 2.101.29 3.144.108 2.735.339 5.454.683 8.149.46 2.836.984 5.344 2.394 7.742.739 1.152 1.68 2.016 2.73 2.496a6.11 6.11 0 001.727.488zm0 0" fill-rule="evenodd" fill-opacity=".2"/><path d="M12.059 67.883a3.77 3.77 0 001.27-1.051 6.777 6.777 0 01-1.618-.258c-1.176-.398-2.266-1.21-3.16-2.36-1.746-2.316-2.543-4.859-3.27-7.843a83.43 83.43 0 01-1.379-8.148c-.164-.922-.27-1.844-.433-2.766-.051-.23-.13-.488-.176-.707-.047-.223-.059-.121.074 0 .13.117-.105-.102-.422-.223-3.21 1.98-3.922 8.563-1.507 14.95 2.41 6.386 7.195 10.312 10.609 8.488zm1.484-1.274c2.094-2.765 2.285-8.379.234-13.824-1.902-5.078-5.23-8.515-8.218-8.93.082.305.128.598.16.708.133 1.05.21 2.101.289 3.144a95.87 95.87 0 00.687 8.148c.457 2.836.98 5.344 2.395 7.743.738 1.152 1.68 2.015 2.726 2.496.563.25 1.141.41 1.727.488zm0 0" fill-rule="evenodd" fill="#f8f9fa" fill-opacity=".149"/><path d="M12.059 67.883a3.77 3.77 0 001.27-1.051 6.777 6.777 0 01-1.618-.258c-1.176-.398-2.266-1.21-3.16-2.36-1.746-2.316-2.543-4.859-3.27-7.843a83.43 83.43 0 01-1.379-8.148c-.164-.922-.27-1.844-.433-2.766-.051-.23-.13-.488-.176-.707-.047-.223-.059-.121.074 0 .13.117-.105-.102-.422-.223-3.21 1.98-3.922 8.563-1.507 14.95 2.41 6.386 7.195 10.312 10.609 8.488zm1.484-1.274c2.094-2.765 2.285-8.379.234-13.824-1.902-5.078-5.23-8.515-8.218-8.93.082.305.128.598.16.708.133 1.05.21 2.101.289 3.144a95.87 95.87 0 00.687 8.148c.457 2.836.98 5.344 2.395 7.743.738 1.152 1.68 2.015 2.726 2.496.563.25 1.141.41 1.727.488zm0 0" fill-rule="evenodd" fill-opacity=".2"/></svg>